<svg xmlns="http://www.w3.org/2000/svg" version="1.1" width="50px" height="50px" style="shape-rendering:geometricPrecision; text-rendering:geometricPrecision; image-rendering:optimizeQuality; fill-rule:evenodd; clip-rule:evenodd" xmlns:xlink="http://www.w3.org/1999/xlink">
    <g>
        <path style="opacity:0.925" fill="#000000" d="M 221.5,-0.5 C 234.167,-0.5 246.833,-0.5 259.5,-0.5C 326.21,9.54617 372.877,45.5462 399.5,107.5C 448.962,111.833 483.795,136.499 504,181.5C 507.308,190.413 509.808,199.413 511.5,208.5C 511.5,218.833 511.5,229.167 511.5,239.5C 507.618,264.644 496.952,286.477 479.5,305C 470.42,308.215 466.253,305.048 467,295.5C 495.324,263.88 502.658,227.88 489,187.5C 476.04,157.872 454.207,138.039 423.5,128C 412.184,125.697 400.851,123.697 389.5,122C 388.667,121.167 387.833,120.333 387,119.5C 360.392,53.7564 311.558,18.7564 240.5,14.5C 193.019,16.078 153.686,34.578 122.5,70C 112,72.8333 108.167,69 111,58.5C 140.533,25.315 177.366,5.64829 221.5,-0.5 Z"/>
    </g>
    <g>
        <path style="opacity:0.948" fill="#000000" d="M -0.5,263.5 C -0.5,254.167 -0.5,244.833 -0.5,235.5C 7.56597,196.429 30.8993,171.429 69.5,160.5C 71.5488,134.634 78.7155,110.301 91,87.5C 96.4414,83.0742 101.108,83.7409 105,89.5C 105.667,91.5 105.667,93.5 105,95.5C 92.9601,117.623 86.6268,141.289 86,166.5C 85.3322,170.499 83.1655,173.332 79.5,175C 39.2967,183.698 17.9634,208.532 15.5,249.5C 17.7253,290.129 38.7253,314.629 78.5,323C 186.17,323.45 293.837,323.783 401.5,324C 409.671,323.699 417.671,322.366 425.5,320C 432.353,316.994 439.353,314.494 446.5,312.5C 452.578,313.084 455.078,316.417 454,322.5C 451.224,326.65 447.391,329.484 442.5,331C 424.916,338.549 406.583,341.382 387.5,339.5C 387.071,353.559 387.571,367.559 389,381.5C 390.491,383.004 392.324,383.837 394.5,384C 398.821,384.499 403.154,384.666 407.5,384.5C 410.243,374.589 416.576,368.089 426.5,365C 447.55,362.067 459.217,371.067 461.5,392C 459.217,412.933 447.55,421.933 426.5,419C 416.576,415.911 410.243,409.411 407.5,399.5C 400.825,399.666 394.158,399.5 387.5,399C 380,396.833 375.167,392 373,384.5C 372.5,369.504 372.333,354.504 372.5,339.5C 356.833,339.5 341.167,339.5 325.5,339.5C 325.333,370.835 325.5,402.168 326,433.5C 326.163,435.676 326.996,437.509 328.5,439C 334.088,440.289 339.755,440.789 345.5,440.5C 348.243,430.589 354.576,424.089 364.5,421C 385.55,418.067 397.217,427.067 399.5,448C 397.217,468.933 385.55,477.933 364.5,475C 354.576,471.911 348.243,465.411 345.5,455.5C 337.747,455.896 330.08,455.396 322.5,454C 316.508,451.341 312.675,446.841 311,440.5C 310.5,406.835 310.333,373.168 310.5,339.5C 294.5,339.5 278.5,339.5 262.5,339.5C 262.667,363.169 262.5,386.836 262,410.5C 257.333,415.833 252.667,415.833 248,410.5C 247.5,386.836 247.333,363.169 247.5,339.5C 231.5,339.5 215.5,339.5 199.5,339.5C 199.666,347.174 199.5,354.841 199,362.5C 194.333,367.833 189.667,367.833 185,362.5C 184.5,354.841 184.334,347.174 184.5,339.5C 168.833,339.5 153.167,339.5 137.5,339.5C 137.667,354.504 137.5,369.504 137,384.5C 134.833,392 130,396.833 122.5,399C 115.842,399.5 109.175,399.666 102.5,399.5C 99.757,409.411 93.4237,415.911 83.5,419C 62.4496,421.933 50.7829,412.933 48.5,392C 50.7829,371.067 62.4496,362.067 83.5,365C 93.4237,368.089 99.757,374.589 102.5,384.5C 108.245,384.789 113.912,384.289 119.5,383C 120.126,382.25 120.626,381.416 121,380.5C 122.446,366.907 122.946,353.24 122.5,339.5C 105.129,339.896 87.7954,339.396 70.5,338C 31.2379,327.907 7.57123,303.074 -0.5,263.5 Z M 71.5,380.5 C 83.3192,379.485 88.4859,384.818 87,396.5C 83.6772,402.908 78.5105,405.075 71.5,403C 65.0919,399.677 62.9252,394.511 65,387.5C 66.6941,384.642 68.8607,382.309 71.5,380.5 Z M 429.5,380.5 C 441.319,379.485 446.486,384.818 445,396.5C 441.677,402.908 436.511,405.075 429.5,403C 423.092,399.677 420.925,394.511 423,387.5C 424.694,384.642 426.861,382.309 429.5,380.5 Z M 367.5,436.5 C 379.319,435.485 384.486,440.818 383,452.5C 379.677,458.908 374.511,461.075 367.5,459C 361.092,455.677 358.925,450.511 361,443.5C 362.694,440.642 364.861,438.309 367.5,436.5 Z"/>
    </g>
    <g>
        <path style="opacity:0.948" fill="#000000" d="M 188.5,385.5 C 192.909,384.618 196.409,385.952 199,389.5C 199.959,407.566 199.626,425.566 198,443.5C 195.833,448.333 192.333,451.833 187.5,454C 179.92,455.396 172.253,455.896 164.5,455.5C 161.757,465.411 155.424,471.911 145.5,475C 124.45,477.933 112.783,468.933 110.5,448C 112.783,427.067 124.45,418.067 145.5,421C 155.424,424.089 161.757,430.589 164.5,440.5C 170.245,440.789 175.912,440.289 181.5,439C 182.126,438.25 182.626,437.416 183,436.5C 184.287,420.9 184.954,405.234 185,389.5C 186.102,388.051 187.269,386.718 188.5,385.5 Z M 133.5,436.5 C 145.319,435.485 150.486,440.818 149,452.5C 145.677,458.908 140.511,461.075 133.5,459C 127.092,455.677 124.925,450.511 127,443.5C 128.694,440.642 130.861,438.309 133.5,436.5 Z"/>
    </g>
    <g>
        <path style="opacity:0.939" fill="#000000" d="M 262.5,511.5 C 257.5,511.5 252.5,511.5 247.5,511.5C 227.578,502.241 222.411,487.575 232,467.5C 235.824,462.009 240.991,458.676 247.5,457.5C 247.334,450.825 247.5,444.158 248,437.5C 252.62,432.177 257.286,432.177 262,437.5C 262.5,444.158 262.666,450.825 262.5,457.5C 275.773,461.281 282.44,470.114 282.5,484C 282.163,497.828 275.497,506.995 262.5,511.5 Z M 250.5,472.5 C 262.319,471.485 267.486,476.818 266,488.5C 262.677,494.908 257.511,497.075 250.5,495C 244.092,491.677 241.925,486.511 244,479.5C 245.694,476.642 247.861,474.309 250.5,472.5 Z"/>
    </g>
</svg>